<?xml version="1.0" standalone="no"?>
<!DOCTYPE svg PUBLIC "-//W3C//DTD SVG 20010904//EN"
 "http://www.w3.org/TR/2001/REC-SVG-20010904/DTD/svg10.dtd">
<svg version="1.0" xmlns="http://www.w3.org/2000/svg"
 width="567.000000pt" height="567.000000pt" viewBox="0 0 567.000000 567.000000"
 preserveAspectRatio="xMidYMid meet">
<metadata>
Created by potrace 1.14, written by Peter Selinger 2001-2017
</metadata>
<g transform="translate(0.000000,567.000000) scale(0.100000,-0.100000)"
fill="#000000" stroke="none">
<path d="M3279 4646 c-4 -3 -48 -7 -269 -22 -125 -9 -153 -28 -152 -103 1 -27
6 -59 11 -72 4 -13 9 -107 9 -209 1 -102 6 -257 11 -345 5 -88 10 -338 10
-555 1 -217 2 -571 4 -786 3 -389 3 -391 -17 -389 -12 1 -30 3 -41 4 -19 1
-20 8 -21 185 l0 183 -31 43 c-73 99 -221 238 -385 361 -107 81 -175 141 -339
300 -36 34 -43 48 -40 77 2 27 32 6 155 -114 71 -68 193 -173 270 -232 77 -59
186 -153 242 -209 56 -57 107 -103 113 -103 14 0 13 -23 11 275 -1 249 -1 250
-26 280 -13 17 -49 68 -80 115 -102 153 -234 301 -336 376 -53 39 -58 64 -14
64 46 0 237 -188 336 -330 84 -121 100 -141 111 -135 5 4 6 160 3 373 -10 727
-18 927 -37 939 -12 7 -30 -13 -171 -194 -64 -84 -141 -176 -170 -205 -86 -88
-257 -240 -441 -395 -176 -147 -275 -256 -378 -414 -97 -148 -182 -355 -203
-489 -3 -19 -10 -49 -15 -67 -21 -67 -17 -419 6 -521 l8 -34 -69 7 c-38 3 -87
8 -109 10 -93 8 -183 16 -220 20 -48 5 -163 15 -225 21 -25 2 -67 6 -95 9 -27
2 -81 7 -120 11 -38 3 -86 7 -105 9 -19 2 -69 7 -110 10 -41 4 -86 8 -100 10
-14 2 -65 7 -115 10 -50 4 -102 9 -117 11 l-28 4 0 -569 c0 -314 3 -572 7
-574 5 -3 46 -8 93 -11 47 -4 105 -9 130 -11 25 -2 74 -7 110 -10 36 -3 81 -8
100 -10 19 -2 73 -7 120 -10 47 -4 92 -8 100 -10 8 -1 58 -6 110 -10 52 -4
103 -9 113 -11 10 -1 55 -6 101 -9 45 -3 91 -7 102 -9 10 -2 62 -7 114 -11 52
-4 101 -8 110 -10 8 -1 56 -6 105 -9 50 -4 101 -9 115 -11 14 -2 61 -7 105
-10 98 -7 178 -14 225 -20 19 -3 69 -7 110 -10 41 -3 91 -7 110 -10 19 -2 69
-7 110 -10 41 -3 91 -8 110 -10 35 -5 74 -8 225 -21 44 -3 89 -8 100 -10 11
-2 77 -7 146 -10 l126 -7 7 57 c4 31 6 127 5 214 -2 86 0 163 5 170 8 14 132
17 140 3 3 -4 43 -9 88 -10 45 -1 87 -5 93 -9 5 -5 51 -9 100 -11 50 -2 93 -5
97 -7 8 -5 76 -12 193 -19 44 -3 94 -7 110 -10 33 -5 84 -10 250 -22 61 -4
116 -12 123 -16 7 -5 43 -9 80 -9 37 0 86 -4 110 -9 24 -5 67 -10 95 -10 29 0
77 -5 107 -11 30 -6 89 -12 130 -14 41 -1 107 -7 145 -13 39 -6 83 -11 99 -11
25 1 138 -11 261 -26 17 -2 66 -6 110 -9 44 -3 118 -10 164 -16 47 -6 122 -12
168 -14 l83 -3 0 36 c3 456 -2 1038 -9 1045 -5 5 -42 11 -83 14 -40 2 -84 7
-98 12 -14 4 -59 8 -100 10 -41 2 -82 6 -90 10 -8 4 -49 9 -90 10 -41 2 -83 5
-94 7 -11 2 -65 6 -120 10 -56 4 -102 10 -103 13 -2 3 -20 6 -40 5 -21 0 -72
3 -113 8 -41 5 -118 13 -170 17 -52 5 -117 11 -145 15 -27 3 -84 8 -125 11
-122 9 -110 -19 -112 263 -2 279 -3 290 -13 314 -4 10 -4 190 0 400 8 443 8
829 0 874 -5 31 -6 31 -83 37 -42 3 -108 4 -145 1 l-69 -5 2 48 c1 27 1 89 1
138 l-1 90 -118 1 c-64 1 -156 8 -203 16 -48 8 -122 16 -165 17 -43 1 -81 4
-85 6 -3 3 -8 3 -10 1z m-1447 -1869 c7 -7 42 -34 78 -60 36 -25 81 -61 100
-78 19 -17 53 -43 75 -57 36 -23 113 -79 125 -92 20 -22 91 -69 120 -80 37
-14 106 -56 128 -78 8 -6 35 -26 60 -43 43 -29 102 -85 102 -97 0 -7 -83 8
-90 16 -3 4 -25 20 -48 35 -24 16 -56 39 -71 53 -15 13 -62 41 -104 63 -42 21
-82 45 -90 52 -8 8 -29 25 -47 39 -19 14 -45 34 -59 46 -14 11 -42 30 -61 42
-32 20 -52 35 -120 96 -14 12 -33 25 -43 29 -9 3 -17 11 -17 17 0 5 -5 10 -12
10 -15 0 -68 50 -68 65 0 9 19 35 26 35 2 0 9 -6 16 -13z"/>
<path d="M2982 1240 c-18 -29 -15 -32 13 -14 27 18 33 34 12 34 -7 0 -18 -9
-25 -20z"/>
<path d="M3046 1155 c-11 -8 -15 -15 -9 -15 6 0 16 7 23 15 16 19 11 19 -14 0z"/>
</g>
</svg>
