<?xml version="1.0" encoding="utf-8"?>
<!-- Generator: Adobe Illustrator 27.8.1, SVG Export Plug-In . SVG Version: 6.00 Build 0)  -->
<svg version="1.1" id="Calque_1" xmlns="http://www.w3.org/2000/svg" xmlns:xlink="http://www.w3.org/1999/xlink" x="0px" y="0px"
	 viewBox="0 0 1080 1080" style="enable-background:new 0 0 1080 1080;" xml:space="preserve">
<style type="text/css">
	.st0{fill:#E7C762;}
</style>
<g>
	<g>
		<path class="st0" d="M619.69,856.85c-26.55-18.9-51.72-39.89-73.87-63.85c-21.91-23.7-40.7-50.34-54.27-79.68
			c-13.43-29.04-22.1-61.19-22.11-93.33c-0.01-28.18,8.79-59.92,36.56-72.51c11.42-5.18,25.35-6.66,37-1.34
			c13.39,6.12,21.02,20.07,24.09,33.93c5.74,25.96-4.54,55.02-25.52,71.41c-12.44,9.72-27.95,14.57-43.33,17.16
			c-15.62,2.63-31.8,3.62-47.63,3.02c-15.61-0.59-31.45-3.22-45.62-10.04c-12.57-6.05-23.25-15.33-31.44-26.58
			c-16.33-22.44-23.39-50.49-27.21-77.57c-4.47-31.73-5.52-64.41-16.22-94.91c-2.57-7.31-5.69-14.42-9.43-21.2
			c-0.93-1.69-3.53-0.18-2.59,1.51c16.53,29.93,19.32,64.68,23.16,98c3.34,28.97,8.12,58.51,22.48,84.34
			c6.64,11.94,15.38,22.73,26.38,30.92c12.67,9.44,27.84,14.68,43.36,16.98c16.11,2.39,32.52,1.98,48.7,0.54
			c15.93-1.42,32.02-4.13,46.62-10.95c13.01-6.08,23.9-15.58,31.43-27.83c7.13-11.62,11.14-25.19,11.4-38.82
			c0.27-14.19-3.56-29.07-12.3-40.43c-8.3-10.78-20.93-16.33-34.47-15.74c-12.95,0.56-25.64,6.08-35.2,14.78
			c-10.89,9.9-17.32,24.08-20.46,38.25c-3.41,15.42-3.31,31.43-1.59,47.06c1.82,16.51,5.51,32.79,10.82,48.53
			c10.63,31.54,27.46,60.71,48.14,86.7c20.91,26.28,45.64,49.31,72.16,69.83c6.38,4.94,12.87,9.75,19.45,14.43
			C619.75,860.56,621.25,857.96,619.69,856.85L619.69,856.85z"/>
	</g>
</g>
<g>
	<g>
		<path class="st0" d="M281.18,457.73c7.06-17.21,14.13-34.42,21.19-51.63c1.75-4.27,3.49-8.55,5.26-12.82
			c1.24-2.98,3.26-7.33,7.16-7.08c1.87,0.12,2.93,1.76,3.93,3.15c1.36,1.88,2.71,3.77,4.07,5.66c2.71,3.77,5.43,7.54,8.14,11.31
			c6.1,8.48,12.21,16.97,18.31,25.45c1.12,1.55,3.72,0.06,2.59-1.51c-5.77-8.01-11.53-16.02-17.3-24.04
			c-2.86-3.97-5.72-7.94-8.58-11.92c-1.45-2.02-2.91-4.04-4.36-6.06c-1.13-1.58-2.25-3.34-4.01-4.29c-3.48-1.89-7.61,0.03-9.86,2.9
			c-1.2,1.54-2.01,3.29-2.76,5.08c-0.93,2.22-1.84,4.46-2.75,6.69c-3.75,9.14-7.5,18.28-11.26,27.43
			c-4.23,10.29-8.45,20.59-12.68,30.88C277.56,458.72,280.46,459.5,281.18,457.73L281.18,457.73z"/>
	</g>
</g>
</svg>
