<?xml version="1.0" encoding="utf-8"?>
<!-- Generator: Adobe Illustrator 27.0.1, SVG Export Plug-In . SVG Version: 6.00 Build 0)  -->
<svg version="1.1" id="Calque_1" xmlns="http://www.w3.org/2000/svg" xmlns:xlink="http://www.w3.org/1999/xlink" x="0px" y="0px"
	 viewBox="0 0 1080 1080" style="enable-background:new 0 0 1080 1080;" xml:space="preserve">
<style type="text/css">
	.st0{fill:#8D3126;}
</style>
<g>
	<g>
		<path class="st0" d="M619.7,856.8C593.1,837.9,568,817,545.8,793c-21.9-23.7-40.7-50.3-54.3-79.7c-13.4-29-22.1-61.2-22.1-93.3
			c0-28.2,8.8-59.9,36.6-72.5c11.4-5.2,25.3-6.7,37-1.3c13.4,6.1,21,20.1,24.1,33.9c5.7,26-4.5,55-25.5,71.4
			c-12.4,9.7-28,14.6-43.3,17.2c-15.6,2.6-31.8,3.6-47.6,3c-15.6-0.6-31.5-3.2-45.6-10c-12.6-6-23.2-15.3-31.4-26.6
			c-16.3-22.4-23.4-50.5-27.2-77.6c-4.5-31.7-5.5-64.4-16.2-94.9c-2.6-7.3-5.7-14.4-9.4-21.2c-0.9-1.7-3.5-0.2-2.6,1.5
			c16.5,29.9,19.3,64.7,23.2,98c3.3,29,8.1,58.5,22.5,84.3c6.6,11.9,15.4,22.7,26.4,30.9c12.7,9.4,27.8,14.7,43.4,17
			c16.1,2.4,32.5,2,48.7,0.5c15.9-1.4,32-4.1,46.6-11c13-6.1,23.9-15.6,31.4-27.8c7.1-11.6,11.1-25.2,11.4-38.8
			c0.3-14.2-3.6-29.1-12.3-40.4c-8.3-10.8-20.9-16.3-34.5-15.7c-13,0.6-25.6,6.1-35.2,14.8c-10.9,9.9-17.3,24.1-20.5,38.2
			c-3.4,15.4-3.3,31.4-1.6,47.1c1.8,16.5,5.5,32.8,10.8,48.5c10.6,31.5,27.5,60.7,48.1,86.7c20.9,26.3,45.6,49.3,72.2,69.8
			c6.4,4.9,12.9,9.8,19.5,14.4C619.8,860.6,621.2,858,619.7,856.8L619.7,856.8z"/>
	</g>
</g>
<g>
	<g>
		<path class="st0" d="M281.2,457.7c7.1-17.2,14.1-34.4,21.2-51.6c1.8-4.3,3.5-8.5,5.3-12.8c1.2-3,3.3-7.3,7.2-7.1
			c1.9,0.1,2.9,1.8,3.9,3.1c1.4,1.9,2.7,3.8,4.1,5.7c2.7,3.8,5.4,7.5,8.1,11.3c6.1,8.5,12.2,17,18.3,25.5c1.1,1.5,3.7,0.1,2.6-1.5
			c-5.8-8-11.5-16-17.3-24c-2.9-4-5.7-7.9-8.6-11.9c-1.5-2-2.9-4-4.4-6.1c-1.1-1.6-2.2-3.3-4-4.3c-3.5-1.9-7.6,0-9.9,2.9
			c-1.2,1.5-2,3.3-2.8,5.1c-0.9,2.2-1.8,4.5-2.8,6.7c-3.8,9.1-7.5,18.3-11.3,27.4c-4.2,10.3-8.5,20.6-12.7,30.9
			C277.6,458.7,280.5,459.5,281.2,457.7L281.2,457.7z"/>
	</g>
</g>
</svg>
